<?xml version="1.0" encoding="UTF-8"?>
<svg xmlns="http://www.w3.org/2000/svg" version="1.1" width="200px" height="200px" style="shape-rendering:geometricPrecision; text-rendering:geometricPrecision; image-rendering:optimizeQuality; fill-rule:evenodd; clip-rule:evenodd" xmlns:xlink="http://www.w3.org/1999/xlink">
<g><path style="opacity:1" fill="#e9e5b6" d="M 81.5,56.5 C 79.323,56.4139 77.323,55.7472 75.5,54.5C 74.5258,56.7427 74.1924,59.076 74.5,61.5C 74.1909,72.2483 74.5242,82.915 75.5,93.5C 74.8333,93.5 74.1667,93.5 73.5,93.5C 73.1961,92.8501 72.8627,92.1835 72.5,91.5C 73.1491,78.5322 73.8158,65.5322 74.5,52.5C 77.0591,53.6076 79.3924,54.9409 81.5,56.5 Z"/></g>
<g><path style="opacity:1" fill="#f3e995" d="M 81.5,56.5 C 81.8333,56.5 82.1667,56.5 82.5,56.5C 82.5,59.1667 82.5,61.8333 82.5,64.5C 81.5111,69.9753 81.1778,75.642 81.5,81.5C 79.8333,81.5 78.1667,81.5 76.5,81.5C 77.3796,74.8772 77.713,68.2105 77.5,61.5C 76.5,61.5 75.5,61.5 74.5,61.5C 74.1924,59.076 74.5258,56.7427 75.5,54.5C 77.323,55.7472 79.323,56.4139 81.5,56.5 Z"/></g>
<g><path style="opacity:1" fill="#f5e797" d="M 88.5,53.5 C 91.1667,55.5 93.5,57.8333 95.5,60.5C 96.6299,73.7882 96.7966,87.1215 96,100.5C 94.117,99.3474 93.2837,97.6807 93.5,95.5C 89.247,95.434 88.5803,93.934 91.5,91C 91.1667,90.8333 90.8333,90.6667 90.5,90.5C 89.4763,91.8532 88.143,92.5198 86.5,92.5C 85.8524,79.1237 86.5191,66.1237 88.5,53.5 Z"/></g>
<g><path style="opacity:1" fill="#eae5b3" d="M 107.5,97.5 C 107.377,93.9601 109.043,91.9601 112.5,91.5C 112.667,78.8289 112.5,66.1623 112,53.5C 111.184,54.8228 110.017,55.4894 108.5,55.5C 109.793,53.7041 111.293,52.0375 113,50.5C 113.667,64.5 113.667,78.5 113,92.5C 111.296,94.3734 109.463,96.0401 107.5,97.5 Z"/></g>
<g><path style="opacity:1" fill="#f4e897" d="M 71.5,90.5 C 71.2852,92.1788 71.9519,93.1788 73.5,93.5C 73.5,93.8333 73.5,94.1667 73.5,94.5C 71.1508,97.0265 68.8175,96.6931 66.5,93.5C 65.2638,94.2458 63.9305,94.5792 62.5,94.5C 62.3335,84.1613 62.5002,73.828 63,63.5C 65.3806,64.435 67.8806,64.7683 70.5,64.5C 70.1736,73.3494 70.507,82.0161 71.5,90.5 Z"/></g>
<g><path style="opacity:1" fill="#f4e898" d="M 107.5,97.5 C 106.167,99.5 104.5,101.167 102.5,102.5C 101.504,89.0102 101.171,75.3435 101.5,61.5C 103.214,58.7872 105.547,56.7872 108.5,55.5C 110.017,55.4894 111.184,54.8228 112,53.5C 112.5,66.1623 112.667,78.8289 112.5,91.5C 109.043,91.9601 107.377,93.9601 107.5,97.5 Z"/></g>
<g><path style="opacity:0.794" fill="#d9debc" d="M 63.5,62.5 C 61.8417,72.9609 60.8417,83.6276 60.5,94.5C 60.5,83.5 60.5,72.5 60.5,61.5C 61.791,61.2627 62.791,61.596 63.5,62.5 Z"/></g>
<g><path style="opacity:1" fill="#e6e7c8" d="M 101.5,61.5 C 101.171,75.3435 101.504,89.0102 102.5,102.5C 102.217,103.289 101.717,103.956 101,104.5C 100.173,89.9941 100.339,75.6607 101.5,61.5 Z"/></g>
<g><path style="opacity:0.788" fill="#d8ddbd" d="M 135.5,62.5 C 136.209,61.596 137.209,61.2627 138.5,61.5C 138.5,72.8333 138.5,84.1667 138.5,95.5C 138.167,95.5 137.833,95.5 137.5,95.5C 138.144,84.1158 137.477,73.1158 135.5,62.5 Z"/></g>
<g><path style="opacity:1" fill="#f5e896" d="M 123.5,53.5 C 124.495,66.3226 124.829,79.3226 124.5,92.5C 122.088,92.756 120.421,91.756 119.5,89.5C 118.833,89.8333 118.167,90.1667 117.5,90.5C 116.21,79.1354 116.21,67.802 117.5,56.5C 119.181,54.9925 121.181,53.9925 123.5,53.5 Z"/></g>
<g><path style="opacity:1" fill="#f6e897" d="M 74.5,61.5 C 75.5,61.5 76.5,61.5 77.5,61.5C 77.713,68.2105 77.3796,74.8772 76.5,81.5C 78.1667,81.5 79.8333,81.5 81.5,81.5C 81.1778,75.642 81.5111,69.9753 82.5,64.5C 82.6665,74.1724 82.4998,83.8391 82,93.5C 79.9189,94.3331 77.7522,94.3331 75.5,93.5C 74.5242,82.915 74.1909,72.2483 74.5,61.5 Z"/></g>
<g><path style="opacity:1" fill="#ece7b3" d="M 88.5,53.5 C 86.5191,66.1237 85.8524,79.1237 86.5,92.5C 88.143,92.5198 89.4763,91.8532 90.5,90.5C 90.8333,90.6667 91.1667,90.8333 91.5,91C 88.5803,93.934 89.247,95.434 93.5,95.5C 93.2837,97.6807 94.117,99.3474 96,100.5C 96.7966,87.1215 96.6299,73.7882 95.5,60.5C 96.4584,60.9528 97.2917,61.6195 98,62.5C 98.6667,76.5 98.6667,90.5 98,104.5C 94.2385,100.23 90.0719,96.5633 85.5,93.5C 85.3334,79.1628 85.5001,64.8295 86,50.5C 87.045,51.3734 87.8783,52.3734 88.5,53.5 Z"/></g>
<g><path style="opacity:1" fill="#e8e3aa" d="M 63.5,62.5 C 66.1667,62.8333 68.8333,63.1667 71.5,63.5C 71.5959,72.6502 71.5959,81.6502 71.5,90.5C 70.507,82.0161 70.1736,73.3494 70.5,64.5C 67.8806,64.7683 65.3806,64.435 63,63.5C 62.5002,73.828 62.3335,84.1613 62.5,94.5C 63.9305,94.5792 65.2638,94.2458 66.5,93.5C 68.8175,96.6931 71.1508,97.0265 73.5,94.5C 74.1667,94.5 74.8333,94.5 75.5,94.5C 75.8417,95.3382 76.5084,95.6716 77.5,95.5C 77.8417,96.3382 78.5084,96.6716 79.5,96.5C 79.8417,97.3382 80.5084,97.6716 81.5,97.5C 81.5,97.8333 81.5,98.1667 81.5,98.5C 80.791,99.404 79.791,99.7373 78.5,99.5C 74.7151,98.9702 71.0485,97.9702 67.5,96.5C 67.1667,96.8333 66.8333,97.1667 66.5,97.5C 70.7941,98.9897 75.1274,100.323 79.5,101.5C 79.2648,102.097 78.7648,102.43 78,102.5C 74.6169,101.186 71.1169,100.353 67.5,100C 64.8475,99.647 62.8475,98.4803 61.5,96.5C 61.5,95.8333 61.1667,95.5 60.5,95.5C 60.5,95.1667 60.5,94.8333 60.5,94.5C 60.8417,83.6276 61.8417,72.9609 63.5,62.5 Z M 62.5,96.5 C 63.0768,95.2267 63.7435,95.2267 64.5,96.5C 64.0302,97.463 63.3635,97.463 62.5,96.5 Z"/></g>
<g><path style="opacity:0.779" fill="#e0e0a8" d="M 145.5,104.5 C 145.167,104.5 144.833,104.5 144.5,104.5C 144.5,93.8333 144.5,83.1667 144.5,72.5C 143.167,72.5 141.833,72.5 140.5,72.5C 140.666,80.84 140.5,89.1733 140,97.5C 137.723,98.1172 135.556,98.7839 133.5,99.5C 131.833,99.5 130.167,99.5 128.5,99.5C 131.833,98.1667 135.167,96.8333 138.5,95.5C 139.493,87.3501 139.826,79.0168 139.5,70.5C 141.5,70.5 143.5,70.5 145.5,70.5C 145.5,81.8333 145.5,93.1667 145.5,104.5 Z"/></g>
<g><path style="opacity:1" fill="#e7e4aa" d="M 123.5,53.5 C 123.56,52.9569 123.893,52.6236 124.5,52.5C 125.167,65.5 125.833,78.5 126.5,91.5C 127.498,82.1904 127.832,72.8571 127.5,63.5C 130.167,63.1667 132.833,62.8333 135.5,62.5C 137.477,73.1158 138.144,84.1158 137.5,95.5C 129.202,97.6579 120.868,99.6579 112.5,101.5C 113.058,100.21 114.058,99.3768 115.5,99C 115,98.8333 114.5,98.6667 114,98.5C 111.589,99.9872 109.089,100.821 106.5,101C 109.333,98.1667 112.167,95.3333 115,92.5C 114.85,80.1248 115.683,68.1248 117.5,56.5C 116.21,67.802 116.21,79.1354 117.5,90.5C 118.167,90.1667 118.833,89.8333 119.5,89.5C 120.421,91.756 122.088,92.756 124.5,92.5C 124.829,79.3226 124.495,66.3226 123.5,53.5 Z"/></g>
<g><path style="opacity:1" fill="#f4e897" d="M 128.5,64.5 C 131.167,64.5 133.833,64.5 136.5,64.5C 136.5,74.5 136.5,84.5 136.5,94.5C 133.833,94.5 131.167,94.5 128.5,94.5C 128.5,84.5 128.5,74.5 128.5,64.5 Z"/></g>
<g><path style="opacity:1" fill="#e8e4aa" d="M 82.5,56.5 C 83.3307,68.3263 83.8307,80.3263 84,92.5C 84.3826,93.056 84.8826,93.3893 85.5,93.5C 86.8333,95.1667 88.1667,96.8333 89.5,98.5C 89.5,99.1667 89.5,99.8333 89.5,100.5C 88.8333,100.5 88.1667,100.5 87.5,100.5C 87.1583,99.6618 86.4916,99.3284 85.5,99.5C 85.1583,98.6618 84.4916,98.3284 83.5,98.5C 83.1583,97.6618 82.4916,97.3284 81.5,97.5C 81.1583,96.6618 80.4916,96.3284 79.5,96.5C 79.1583,95.6618 78.4916,95.3284 77.5,95.5C 77.1583,94.6618 76.4916,94.3284 75.5,94.5C 75.5,94.1667 75.5,93.8333 75.5,93.5C 77.7522,94.3331 79.9189,94.3331 82,93.5C 82.4998,83.8391 82.6665,74.1724 82.5,64.5C 82.5,61.8333 82.5,59.1667 82.5,56.5 Z"/></g>
<g><path style="opacity:1" fill="#f3e897" d="M 57.5,69.5 C 58.1174,69.6107 58.6174,69.944 59,70.5C 59.1706,79.0101 59.6706,87.3434 60.5,95.5C 61.1667,95.5 61.5,95.8333 61.5,96.5C 62.8475,98.4803 64.8475,99.647 67.5,100C 71.1169,100.353 74.6169,101.186 78,102.5C 78.7648,102.43 79.2648,102.097 79.5,101.5C 80.4916,101.328 81.1583,101.662 81.5,102.5C 72.8955,104.471 63.8955,105.138 54.5,104.5C 54.5,93.5 54.5,82.5 54.5,71.5C 56.1788,71.7148 57.1788,71.0481 57.5,69.5 Z"/></g>
<g><path style="opacity:0.078" fill="#d4dec6" d="M 81.5,98.5 C 82.1667,98.5 82.8333,98.5 83.5,98.5C 83.8417,99.3382 84.5084,99.6716 85.5,99.5C 85.8417,100.338 86.5084,100.672 87.5,100.5C 88.1667,101.833 88.8333,101.833 89.5,100.5C 89.5,99.8333 89.5,99.1667 89.5,98.5C 91.4459,99.2544 92.2793,100.588 92,102.5C 87.4282,102.402 82.9282,101.402 78.5,99.5C 79.791,99.7373 80.791,99.404 81.5,98.5 Z"/></g>
<g><path style="opacity:0.082" fill="#cddbf2" d="M 112.5,101.5 C 111.833,102.167 111.833,102.167 112.5,101.5 Z"/></g>
<g><path style="opacity:1" fill="#f4e895" d="M 144.5,104.5 C 141.482,104.296 138.482,103.963 135.5,103.5C 135.771,101.62 135.104,100.287 133.5,99.5C 135.556,98.7839 137.723,98.1172 140,97.5C 140.5,89.1733 140.666,80.84 140.5,72.5C 141.833,72.5 143.167,72.5 144.5,72.5C 144.5,83.1667 144.5,93.8333 144.5,104.5 Z"/></g>
<g><path style="opacity:1" fill="#f2e89e" d="M 128.5,99.5 C 130.167,99.5 131.833,99.5 133.5,99.5C 135.104,100.287 135.771,101.62 135.5,103.5C 138.482,103.963 141.482,104.296 144.5,104.5C 133.674,105.659 122.674,105.826 111.5,105C 112.056,104.617 112.389,104.117 112.5,103.5C 117.659,101.56 122.993,100.226 128.5,99.5 Z"/></g>
<g><path style="opacity:1" fill="#e6e5aa" d="M 57.5,69.5 C 57.1788,71.0481 56.1788,71.7148 54.5,71.5C 54.5,82.5 54.5,93.5 54.5,104.5C 63.8955,105.138 72.8955,104.471 81.5,102.5C 84.0673,102.721 86.4006,103.388 88.5,104.5C 77.012,105.495 65.3453,105.828 53.5,105.5C 53.5,93.8333 53.5,82.1667 53.5,70.5C 54.9587,70.5674 56.2921,70.2341 57.5,69.5 Z"/></g>
<g><path style="opacity:0.751" fill="#dce2c2" d="M 88.5,104.5 C 90.4286,104.231 92.0953,104.731 93.5,106C 79.9936,106.827 66.6603,106.66 53.5,105.5C 65.3453,105.828 77.012,105.495 88.5,104.5 Z"/></g>
<g><path style="opacity:0.766" fill="#dbdfbc" d="M 112.5,103.5 C 112.389,104.117 112.056,104.617 111.5,105C 122.674,105.826 133.674,105.659 144.5,104.5C 144.833,104.5 145.167,104.5 145.5,104.5C 139.034,105.83 132.201,106.497 125,106.5C 118.167,106.333 111.333,106.167 104.5,106C 107.08,104.856 109.747,104.022 112.5,103.5 Z"/></g>
<g><path style="opacity:1" fill="#e2e2b1" d="M 104.5,111.5 C 104.5,110.5 104.5,109.5 104.5,108.5C 101.102,108.18 97.7683,108.513 94.5,109.5C 96.7961,111.552 99.4628,112.552 102.5,112.5C 99.0148,114.054 95.8482,113.387 93,110.5C 92.5172,109.552 92.3505,108.552 92.5,107.5C 97.1667,107.5 101.833,107.5 106.5,107.5C 106.771,109.38 106.104,110.713 104.5,111.5 Z"/></g>
<g><path style="opacity:1" fill="#efe998" d="M 104.5,111.5 C 103.833,111.833 103.167,112.167 102.5,112.5C 99.4628,112.552 96.7961,111.552 94.5,109.5C 97.7683,108.513 101.102,108.18 104.5,108.5C 104.5,109.5 104.5,110.5 104.5,111.5 Z"/></g>
<g><path style="opacity:1" fill="#e1e3bc" d="M 87.5,127.5 C 91.2984,126.517 95.2984,126.183 99.5,126.5C 99.7135,124.856 99.3802,123.356 98.5,122C 92.5092,121.501 86.5092,121.334 80.5,121.5C 80.5,126.833 80.5,132.167 80.5,137.5C 80.5,140.833 80.5,144.167 80.5,147.5C 87.1667,147.5 93.8333,147.5 100.5,147.5C 100.5,145.833 100.5,144.167 100.5,142.5C 95.9677,142.818 91.6344,142.485 87.5,141.5C 92.1667,141.5 96.8333,141.5 101.5,141.5C 101.5,143.833 101.5,146.167 101.5,148.5C 93.8261,148.666 86.1594,148.5 78.5,148C 79.4845,138.917 79.8178,129.751 79.5,120.5C 86.5,120.5 93.5,120.5 100.5,120.5C 100.5,122.833 100.5,125.167 100.5,127.5C 96.1667,127.5 91.8333,127.5 87.5,127.5 Z"/></g>
<g><path style="opacity:1" fill="#eae6b4" d="M 128.5,128.5 C 126.72,127.01 126.054,125.01 126.5,122.5C 124.5,122.5 122.5,122.5 120.5,122.5C 120.715,124.179 120.048,125.179 118.5,125.5C 118.421,124.07 118.754,122.736 119.5,121.5C 126.224,118.882 129.224,121.216 128.5,128.5 Z"/></g>
<g><path style="opacity:1" fill="#e7e6b4" d="M 140.5,127.5 C 140.5,125.833 140.5,124.167 140.5,122.5C 139.022,122.238 137.689,122.571 136.5,123.5C 134.837,126.355 133.17,129.022 131.5,131.5C 132.703,127.89 133.703,124.223 134.5,120.5C 137.518,120.335 140.518,120.502 143.5,121C 142.578,123.294 141.578,125.461 140.5,127.5 Z"/></g>
<g><path style="opacity:1" fill="#f4e898" d="M 87.5,127.5 C 85.8863,129.075 83.8863,129.741 81.5,129.5C 81.281,130.675 81.6143,131.675 82.5,132.5C 83.451,131.674 84.451,131.508 85.5,132C 85.0194,134.978 83.3528,136.811 80.5,137.5C 80.5,132.167 80.5,126.833 80.5,121.5C 86.5092,121.334 92.5092,121.501 98.5,122C 99.3802,123.356 99.7135,124.856 99.5,126.5C 95.2984,126.183 91.2984,126.517 87.5,127.5 Z"/></g>
<g><path style="opacity:0.519" fill="#d7d7b0" d="M 75.5,149.5 C 69.021,148.509 62.3543,148.176 55.5,148.5C 55.5,139.167 55.5,129.833 55.5,120.5C 58.5,120.5 61.5,120.5 64.5,120.5C 64.5,127.5 64.5,134.5 64.5,141.5C 68.1667,141.5 71.8333,141.5 75.5,141.5C 75.8051,144.414 75.8051,147.081 75.5,149.5 Z"/></g>
<g><path style="opacity:1" fill="#f3e79c" d="M 62.5,122.5 C 63.4907,128.979 63.824,135.646 63.5,142.5C 67.1667,142.5 70.8333,142.5 74.5,142.5C 74.5,144.167 74.5,145.833 74.5,147.5C 68.31,147.823 62.31,147.49 56.5,146.5C 57.1577,145.602 57.8243,144.602 58.5,143.5C 59.329,138.533 59.829,133.533 60,128.5C 60.3379,133.547 61.0046,138.547 62,143.5C 62.4996,136.508 62.6663,129.508 62.5,122.5 Z"/></g>
<g><path style="opacity:1" fill="#f4e997" d="M 62.5,122.5 C 62.6663,129.508 62.4996,136.508 62,143.5C 61.0046,138.547 60.3379,133.547 60,128.5C 59.829,133.533 59.329,138.533 58.5,143.5C 57.8243,144.602 57.1577,145.602 56.5,146.5C 56.5,138.167 56.5,129.833 56.5,121.5C 58.7354,121.205 60.7354,121.539 62.5,122.5 Z"/></g>
<g><path style="opacity:1" fill="#f2e899" d="M 128.5,128.5 C 129.313,130.261 130.313,131.928 131.5,133.5C 131.151,141.897 130.151,142.23 128.5,134.5C 127.676,132.252 126.676,132.086 125.5,134C 126.456,137.394 126.789,140.894 126.5,144.5C 125.272,140.864 123.939,137.864 122.5,135.5C 120.412,137.336 119.079,139.669 118.5,142.5C 116.278,142.441 115.278,141.275 115.5,139C 115.844,137.635 116.511,136.468 117.5,135.5C 116.609,134.41 115.609,134.41 114.5,135.5C 113.702,135.043 113.369,134.376 113.5,133.5C 114.833,133.5 116.167,133.5 117.5,133.5C 118.092,130.873 118.425,128.206 118.5,125.5C 120.048,125.179 120.715,124.179 120.5,122.5C 122.5,122.5 124.5,122.5 126.5,122.5C 126.054,125.01 126.72,127.01 128.5,128.5 Z"/></g>
<g><path style="opacity:1" fill="#eaeab4" d="M 118.5,125.5 C 118.425,128.206 118.092,130.873 117.5,133.5C 116.167,133.5 114.833,133.5 113.5,133.5C 113.326,131.139 112.993,128.806 112.5,126.5C 111.448,126.649 110.448,126.483 109.5,126C 110.38,124.644 110.714,123.144 110.5,121.5C 107.789,121.185 105.456,121.852 103.5,123.5C 102.226,122.811 102.226,121.977 103.5,121C 106.227,120.182 108.894,120.348 111.5,121.5C 112.835,125.172 114.168,128.839 115.5,132.5C 116.66,130.125 117.66,127.792 118.5,125.5 Z"/></g>
<g><path style="opacity:1" fill="#f4e896" d="M 113.5,133.5 C 113.369,134.376 113.702,135.043 114.5,135.5C 115.609,134.41 116.609,134.41 117.5,135.5C 116.511,136.468 115.844,137.635 115.5,139C 115.278,141.275 116.278,142.441 118.5,142.5C 118.5,143.833 118.5,145.167 118.5,146.5C 116.473,146.662 114.473,146.495 112.5,146C 111.915,144.698 111.249,143.531 110.5,142.5C 110.074,135.888 108.074,129.888 104.5,124.5C 103.833,124.5 103.5,124.167 103.5,123.5C 105.456,121.852 107.789,121.185 110.5,121.5C 110.714,123.144 110.38,124.644 109.5,126C 110.448,126.483 111.448,126.649 112.5,126.5C 112.993,128.806 113.326,131.139 113.5,133.5 Z"/></g>
<g><path style="opacity:1" fill="#e2e1b6" d="M 87.5,130.5 C 91.5,130.5 95.5,130.5 99.5,130.5C 99.5,132.833 99.5,135.167 99.5,137.5C 95.5,137.5 91.5,137.5 87.5,137.5C 90.9619,136.518 94.6286,136.185 98.5,136.5C 98.5,134.833 98.5,133.167 98.5,131.5C 94.6286,131.815 90.9619,131.482 87.5,130.5 Z"/></g>
<g><path style="opacity:1" fill="#f3e998" d="M 140.5,127.5 C 140.277,131.162 139.277,134.495 137.5,137.5C 135.049,139.896 134.049,142.896 134.5,146.5C 131.467,146.868 128.8,146.202 126.5,144.5C 126.789,140.894 126.456,137.394 125.5,134C 126.676,132.086 127.676,132.252 128.5,134.5C 130.151,142.23 131.151,141.897 131.5,133.5C 131.5,132.833 131.5,132.167 131.5,131.5C 133.17,129.022 134.837,126.355 136.5,123.5C 137.689,122.571 139.022,122.238 140.5,122.5C 140.5,124.167 140.5,125.833 140.5,127.5 Z"/></g>
<g><path style="opacity:1" fill="#ebe5b1" d="M 104.5,124.5 C 108.074,129.888 110.074,135.888 110.5,142.5C 107.928,136.784 105.928,130.784 104.5,124.5 Z"/></g>
<g><path style="opacity:1" fill="#e4e4b3" d="M 122.5,135.5 C 121.344,139.793 120.344,144.126 119.5,148.5C 117.219,149.357 114.885,149.857 112.5,150C 113.167,149.667 113.833,149.333 114.5,149C 111.277,148.062 109.944,145.895 110.5,142.5C 111.249,143.531 111.915,144.698 112.5,146C 114.473,146.495 116.473,146.662 118.5,146.5C 118.5,145.167 118.5,143.833 118.5,142.5C 119.079,139.669 120.412,137.336 122.5,135.5 Z"/></g>
<g><path style="opacity:1" fill="#f4e799" d="M 87.5,127.5 C 87.5,128.5 87.5,129.5 87.5,130.5C 90.9619,131.482 94.6286,131.815 98.5,131.5C 98.5,133.167 98.5,134.833 98.5,136.5C 94.6286,136.185 90.9619,136.518 87.5,137.5C 87.5,138.833 87.5,140.167 87.5,141.5C 91.6344,142.485 95.9677,142.818 100.5,142.5C 100.5,144.167 100.5,145.833 100.5,147.5C 93.8333,147.5 87.1667,147.5 80.5,147.5C 80.5,144.167 80.5,140.833 80.5,137.5C 83.3528,136.811 85.0194,134.978 85.5,132C 84.451,131.508 83.451,131.674 82.5,132.5C 81.6143,131.675 81.281,130.675 81.5,129.5C 83.8863,129.741 85.8863,129.075 87.5,127.5 Z"/></g>
<g><path style="opacity:0.004" fill="#e4e1ff" d="M 77.5,143.5 C 78.525,143.897 78.6917,144.563 78,145.5C 77.5357,144.906 77.369,144.239 77.5,143.5 Z"/></g>
<g><path style="opacity:1" fill="#e5e4b4" d="M 137.5,137.5 C 136.801,141.096 135.801,144.596 134.5,148C 132.167,148.667 129.833,148.667 127.5,148C 126.663,146.989 126.33,145.822 126.5,144.5C 128.8,146.202 131.467,146.868 134.5,146.5C 134.049,142.896 135.049,139.896 137.5,137.5 Z"/></g>
<g><path style="opacity:0.043" fill="#cddddd" d="M 56.5,150.5 C 57.6009,149.402 58.9343,149.235 60.5,150C 59.2068,150.49 57.8734,150.657 56.5,150.5 Z"/></g>
<g><path style="opacity:0.047" fill="#bfc9c9" d="M 75.5,149.5 C 74.7494,150.573 73.7494,150.74 72.5,150C 73.448,149.517 74.448,149.351 75.5,149.5 Z"/></g>
<g><path style="opacity:0.024" fill="#dfdfe9" d="M 81.5,150.5 C 82.2506,149.427 83.2506,149.26 84.5,150C 83.552,150.483 82.552,150.649 81.5,150.5 Z"/></g>
<g><path style="opacity:0.008" fill="#fefffe" d="M 86.5,150.5 C 86.8966,149.475 87.5632,149.308 88.5,150C 87.9056,150.464 87.2389,150.631 86.5,150.5 Z"/></g>
<g><path style="opacity:0.027" fill="#b2d8d8" d="M 98.5,150.5 C 98.8966,149.475 99.5632,149.308 100.5,150C 99.9056,150.464 99.2389,150.631 98.5,150.5 Z"/></g>
<g><path style="opacity:0.012" fill="#a0fffe" d="M 128.5,150.5 C 129.251,149.427 130.251,149.26 131.5,150C 130.552,150.483 129.552,150.649 128.5,150.5 Z"/></g>
</svg>
