<?xml version="1.0" encoding="UTF-8"?>
<svg xmlns="http://www.w3.org/2000/svg" version="1.1" width="200px" height="200px" style="shape-rendering:geometricPrecision; text-rendering:geometricPrecision; image-rendering:optimizeQuality; fill-rule:evenodd; clip-rule:evenodd" xmlns:xlink="http://www.w3.org/1999/xlink">
<g><path style="opacity:1" fill="#2a4173" d="M -0.5,-0.5 C 66.1667,-0.5 132.833,-0.5 199.5,-0.5C 199.5,66.1667 199.5,132.833 199.5,199.5C 132.833,199.5 66.1667,199.5 -0.5,199.5C -0.5,132.833 -0.5,66.1667 -0.5,-0.5 Z"/></g>
<g><path style="opacity:1" fill="#f2e695" d="M 85.5,50.5 C 89.7978,54.2964 93.9644,58.2964 98,62.5C 98.6667,76.1667 98.6667,89.8333 98,103.5C 94.1896,99.6002 90.1896,95.9336 86,92.5C 85.5001,78.504 85.3334,64.504 85.5,50.5 Z"/></g>
<g><path style="opacity:1" fill="#f2e695" d="M 112.5,50.5 C 113.661,64.3272 113.827,78.3272 113,92.5C 108.81,95.9336 104.81,99.6002 101,103.5C 100.333,89.8333 100.333,76.1667 101,62.5C 105.037,58.631 108.87,54.631 112.5,50.5 Z"/></g>
<g><path style="opacity:1" fill="#f1e595" d="M 73.5,52.5 C 76.7188,54.0265 79.8855,55.6932 83,57.5C 83.3333,69.5 83.6667,81.5 84,93.5C 86.5366,96.372 89.3699,98.872 92.5,101C 86.1321,98.904 79.9654,96.0707 74,92.5C 73.5001,79.1708 73.3334,65.8375 73.5,52.5 Z"/></g>
<g><path style="opacity:1" fill="#f1e495" d="M 124.5,52.5 C 125.66,65.6603 125.827,78.9936 125,92.5C 119.035,96.0707 112.868,98.904 106.5,101C 109.63,98.872 112.463,96.372 115,93.5C 115.333,81.5 115.667,69.5 116,57.5C 118.979,55.933 121.812,54.2663 124.5,52.5 Z"/></g>
<g><path style="opacity:1" fill="#bdba8c" d="M 63.5,62.5 C 61.5238,72.7809 60.8572,83.4476 61.5,94.5C 60.5054,83.6794 60.1721,72.6794 60.5,61.5C 61.791,61.2627 62.791,61.596 63.5,62.5 Z"/></g>
<g><path style="opacity:1" fill="#ebe094" d="M 63.5,62.5 C 66.1667,63.1667 68.8333,63.8333 71.5,64.5C 71.3335,74.1724 71.5002,83.8391 72,93.5C 76.7235,96.1125 81.5569,98.6125 86.5,101C 77.9257,99.6068 69.5924,97.4401 61.5,94.5C 60.8572,83.4476 61.5238,72.7809 63.5,62.5 Z"/></g>
<g><path style="opacity:1" fill="#ece194" d="M 135.5,62.5 C 137.476,72.7809 138.143,83.4476 137.5,94.5C 129.239,97.148 120.906,99.3147 112.5,101C 117.412,98.6276 122.245,96.1276 127,93.5C 127.333,83.8333 127.667,74.1667 128,64.5C 130.382,63.4459 132.882,62.7792 135.5,62.5 Z"/></g>
<g><path style="opacity:1" fill="#bdba8c" d="M 135.5,62.5 C 136.209,61.596 137.209,61.2627 138.5,61.5C 138.828,72.6794 138.495,83.6794 137.5,94.5C 138.143,83.4476 137.476,72.7809 135.5,62.5 Z"/></g>
<g><path style="opacity:1" fill="#f3e695" d="M 54.5,70.5 C 55.8333,70.5 57.1667,70.5 58.5,70.5C 58.3336,78.84 58.5003,87.1733 59,95.5C 69.0203,98.9227 79.1869,101.923 89.5,104.5C 78.012,105.495 66.3453,105.828 54.5,105.5C 54.5,93.8333 54.5,82.1667 54.5,70.5 Z"/></g>
<g><path style="opacity:1" fill="#f1e495" d="M 144.5,70.5 C 144.5,82.1667 144.5,93.8333 144.5,105.5C 132.655,105.828 120.988,105.495 109.5,104.5C 119.795,101.936 129.962,98.9356 140,95.5C 140.5,87.1733 140.666,78.84 140.5,70.5C 141.833,70.5 143.167,70.5 144.5,70.5 Z"/></g>
<g><path style="opacity:1" fill="#bfbc8c" d="M 54.5,70.5 C 54.5,82.1667 54.5,93.8333 54.5,105.5C 66.3453,105.828 78.012,105.495 89.5,104.5C 90.9217,104.709 92.255,105.209 93.5,106C 80.1708,106.5 66.8375,106.667 53.5,106.5C 53.1716,94.3217 53.5049,82.3217 54.5,70.5 Z"/></g>
<g><path style="opacity:1" fill="#bfbb8c" d="M 144.5,70.5 C 145.495,82.3217 145.828,94.3217 145.5,106.5C 131.829,106.667 118.163,106.5 104.5,106C 106.154,105.392 107.821,104.892 109.5,104.5C 120.988,105.495 132.655,105.828 144.5,105.5C 144.5,93.8333 144.5,82.1667 144.5,70.5 Z"/></g>
<g><path style="opacity:1" fill="#636f7d" d="M 105.5,109.5 C 101.5,108.167 97.5,108.167 93.5,109.5C 92.9569,109.44 92.6236,109.107 92.5,108.5C 97.1667,107.167 101.833,107.167 106.5,108.5C 106.376,109.107 106.043,109.44 105.5,109.5 Z"/></g>
<g><path style="opacity:1" fill="#efe395" d="M 105.5,109.5 C 104.308,111.922 102.308,112.922 99.5,112.5C 96.6923,112.922 94.6923,111.922 93.5,109.5C 97.5,108.167 101.5,108.167 105.5,109.5 Z"/></g>
<g><path style="opacity:1" fill="#e5da93" d="M 55.5,120.5 C 58.5,120.5 61.5,120.5 64.5,120.5C 64.5,127.5 64.5,134.5 64.5,141.5C 68.1667,141.5 71.8333,141.5 75.5,141.5C 75.5,143.833 75.5,146.167 75.5,148.5C 68.8333,148.5 62.1667,148.5 55.5,148.5C 55.5,139.167 55.5,129.833 55.5,120.5 Z"/></g>
<g><path style="opacity:1" fill="#ebe094" d="M 79.5,120.5 C 86.5,120.5 93.5,120.5 100.5,120.5C 100.5,122.833 100.5,125.167 100.5,127.5C 96.1667,127.5 91.8333,127.5 87.5,127.5C 87.5,128.5 87.5,129.5 87.5,130.5C 91.5,130.5 95.5,130.5 99.5,130.5C 99.5,132.833 99.5,135.167 99.5,137.5C 95.5,137.5 91.5,137.5 87.5,137.5C 87.5,138.833 87.5,140.167 87.5,141.5C 91.8333,141.5 96.1667,141.5 100.5,141.5C 100.5,143.833 100.5,146.167 100.5,148.5C 93.5,148.5 86.5,148.5 79.5,148.5C 79.5,139.167 79.5,129.833 79.5,120.5 Z"/></g>
<g><path style="opacity:1" fill="#ece194" d="M 103.5,120.5 C 106.247,120.187 108.914,120.52 111.5,121.5C 112.634,125.568 113.967,129.568 115.5,133.5C 117.033,129.568 118.366,125.568 119.5,121.5C 121.765,120.353 124.098,120.186 126.5,121C 127.994,125.483 129.494,129.983 131,134.5C 132.48,129.898 133.646,125.231 134.5,120.5C 137.167,120.5 139.833,120.5 142.5,120.5C 139.844,129.47 137.178,138.47 134.5,147.5C 131.966,148.777 129.466,148.777 127,147.5C 125.667,142.833 124.333,138.167 123,133.5C 121.636,138.492 120.469,143.492 119.5,148.5C 116.833,148.5 114.167,148.5 111.5,148.5C 109.44,138.987 106.773,129.654 103.5,120.5 Z"/></g>
</svg>
